<svg width="22" height="22" viewBox="0 0 22 22" fill="none" xmlns="http://www.w3.org/2000/svg">
<path d="M8.33925 6.26863L4.70539 2.63477C5.23207 2.00239 5.20595 1.06469 4.61212 0.471488C3.98347 -0.157163 2.96433 -0.157163 2.33505 0.471488C1.94891 0.857632 1.80278 1.39052 1.89046 1.89046C1.39052 1.80278 0.857632 1.94891 0.471488 2.33505C-0.157163 2.9637 -0.157163 3.98347 0.471488 4.61212C1.06469 5.20595 2.00238 5.23145 2.63477 4.70539L6.26863 8.33925L8.33925 6.26863V6.26863Z" fill="#FFD983"/>
<path d="M20.1145 20.1151C21.1498 19.0798 23.767 14.637 20.1431 11.0143C17.6192 8.49099 15.5865 8.63525 11.8009 7.69693C10.2482 7.17959 8.22486 5.31416 7.70689 4.79619C7.18892 5.31416 7.36987 7.20446 7.36987 7.20446C7.36987 7.20446 5.11581 7.38727 4.59784 7.90524C5.11581 8.42321 7.51973 10.6965 7.94007 11.7648C9.07239 15.3552 8.94305 17.1814 11.4664 19.7053C15.6076 23.846 19.0798 21.1498 20.1145 20.1151Z" fill="#C1694F"/>
</svg>
