<svg width="31" height="31" viewBox="0 0 31 31" fill="none" xmlns="http://www.w3.org/2000/svg">
<path d="M1.8247 30.0138C3.6293 29.4581 7.02892 28.5493 8.32332 28.0168C9.36777 27.5865 10.4174 27.1845 10.9121 26.6906C11.406 26.1967 11.3673 25.3567 10.8623 24.8499C10.8623 24.8499 9.4236 22.7293 8.47191 21.9691C7.71434 21.0174 5.5885 19.577 5.5885 19.577C5.08174 19.0702 4.24257 19.0316 3.74783 19.5255C3.25395 20.0202 2.85197 21.0698 2.42165 22.1151C1.88911 23.4087 0.98209 26.8091 0.424647 28.6138C0.330165 28.9221 1.51634 30.1083 1.8247 30.0138Z" fill="#D99E82"/>
<path d="M26.1237 11.4791C25.135 12.4677 23.5332 12.4677 22.5445 11.4791L18.9645 7.89996C17.9768 6.91134 17.9768 5.30772 18.9645 4.32082L22.5445 0.740822C23.5332 -0.246941 25.135 -0.246941 26.1237 0.740822L29.7028 4.31996C30.6914 5.30773 30.6914 6.91048 29.7028 7.8991L26.1237 11.4791Z" fill="#EA596E"/>
<path d="M10.9121 26.6907L7.33037 23.109L3.75295 19.5333L17.1754 6.10999L24.3336 13.2691L10.9121 26.6907Z" fill="#FFCC4D"/>
<path d="M0.824035 27.3134C0.824035 27.3134 -0.454904 29.6402 0.173829 30.2689C0.802562 30.8976 3.12424 29.6118 3.12424 29.6118C3.12424 29.6118 3.08301 27.4078 0.824035 27.3134Z" fill="#292F33"/>
<path d="M21.6495 1.6358L28.8087 8.79494L24.3345 13.2682L17.1754 6.10994L21.6495 1.6358Z" fill="#CCD6DD"/>
<path d="M20.7554 2.53082L27.9137 9.6891L27.0187 10.5841L19.8604 3.42582L20.7554 2.53082ZM18.9637 4.31996L26.1228 11.4791L25.2278 12.3741L18.0695 5.21496L18.9637 4.31996Z" fill="#99AAB5"/>
</svg>
