<svg width="27" height="21" viewBox="0 0 27 21" fill="none" xmlns="http://www.w3.org/2000/svg">
<path d="M24.2155 11.8931C24.2155 11.136 25.3686 7.19009 26.5224 6.03704C27.6747 4.88399 26.5224 3.64009 25.3693 3.64009C22.7914 3.64009 18.4503 8.86477 18.4503 11.8931C18.4503 15.6786 22.7907 19.785 25.3693 19.785C26.5224 19.785 27.6754 18.7221 26.5224 17.5683C25.3693 16.416 24.2155 13.4073 24.2155 11.8931Z" fill="#3B88C3"/>
<path d="M6.70251 4.61295C6.70251 2.30685 7.83588 0 8.98893 0C12.4481 0 19.0749 3.65145 20.2279 9.41745C21.3817 15.1835 6.70251 4.61295 6.70251 4.61295V4.61295ZM10.3774 18.4511C11.5305 19.6041 13.8373 20.7579 16.1442 20.7579C18.4503 20.7579 13.7889 17.5865 14.9911 16.1457C16.6416 14.1644 10.3774 18.4511 10.3774 18.4511Z" fill="#3B88C3"/>
<path d="M1.44074 15.4719C2.01689 13.7419 1.58459 12.4927 0.575386 11.2443C-0.433815 9.99435 3.50684 9.8028 4.80374 11.5328C6.10063 13.2627 9.12899 16.288 6.43754 16.2419C3.7476 16.1926 1.44074 15.4719 1.44074 15.4719V15.4719Z" fill="black"/>
<path d="M0 11.5055C0.72605 12.1672 5.46846 14.7678 5.42455 15.3947C5.38064 16.0215 3.69914 15.3281 3.07379 15.1834C1.94951 14.9245 1.63153 14.7307 1.31961 14.7852C0.683653 15.0282 0.900181 15.6945 1.13639 16.0753C2.27051 18.0513 6.65255 19.6049 10.3426 19.6049C16.7113 19.6049 23.0632 13.8396 23.0632 11.5328C23.0632 9.22666 15.9882 3.4599 9.61959 3.4599C3.26685 3.45914 0.00908509 8.04863 0 11.5055Z" fill="#55ACEE"/>
<path d="M5.17245 6.59349C6.00827 6.59349 6.68663 7.27033 6.68663 8.10767C6.68663 8.94426 6.00827 9.62185 5.17245 9.62185C4.33586 9.62185 3.65826 8.9435 3.65826 8.10767C3.65826 7.27033 4.33586 6.59349 5.17245 6.59349Z" fill="black"/>
<path d="M11.2897 16.4205C11.1716 16.4205 11.052 16.3933 10.94 16.335C10.569 16.1412 10.4259 15.6839 10.6197 15.3129C11.8197 13.0159 12.2989 10.946 10.7363 8.31512C10.5228 7.9555 10.6409 7.4914 11.0005 7.27715C11.3601 7.06289 11.8242 7.18327 12.0385 7.54137C14.0773 10.9748 13.1439 13.751 11.9613 16.014C11.8265 16.2729 11.5623 16.4205 11.2897 16.4205V16.4205Z" fill="#226699"/>
</svg>
