<svg width="28" height="21" viewBox="0 0 28 21" fill="none" xmlns="http://www.w3.org/2000/svg">
<path d="M13.9091 3.68179C6.54545 3.68179 0 6.86749 0 11.9659C0 15.7895 3.27273 18.9751 8.18182 18.9751C11.0078 18.9751 13.9999 17.056 16.1403 17.056C16.2164 17.056 16.2908 17.0588 16.3636 17.0634C19.5619 17.2797 19.6364 20.25 23.7273 20.25C25.6426 20.25 27.8182 18.3382 27.8182 13.8777C27.8182 8.14232 22.0909 3.68179 13.9091 3.68179Z" fill="#FFD983"/>
<path d="M26.1818 10.125H27.8182V13.8068H26.1818V10.125ZM0 8.2841H1.63636V11.9659H0V8.2841Z" fill="#FFD983"/>
<path d="M23.7273 15.9312C21.8692 15.9312 21.042 15.2363 20.0823 14.4327C19.2076 13.6991 18.216 12.8689 16.4348 12.7474C16.3375 12.7409 16.2401 12.7373 16.1403 12.7373C14.9678 12.7373 13.7037 13.1818 12.366 13.654C10.9653 14.1465 9.51709 14.6564 8.18264 14.6564C3.91582 14.6564 0.819 11.976 0.819 8.2841C0.819 3.31733 7.56409 0.636963 13.9099 0.636963C21.4953 0.636963 27.0008 4.65659 27.0008 10.1959C27 14.4033 25.0421 15.9312 23.7273 15.9312Z" fill="#A0041E"/>
<path d="M13.9091 1.27483C21.0199 1.27483 26.1818 5.0266 26.1818 10.1959C26.1818 14.0102 24.4964 15.2934 23.7273 15.2934C22.2267 15.2934 21.6123 14.7788 20.6812 13.9983C19.7542 13.2214 18.6005 12.254 16.5052 12.1123C16.3857 12.104 16.2638 12.0994 16.1403 12.0994C14.7919 12.0994 13.4493 12.5725 12.0289 13.0723C10.7067 13.538 9.34036 14.0185 8.18182 14.0185C4.92873 14.0185 1.63636 12.0478 1.63636 8.28409C1.63636 3.73152 7.96009 1.27483 13.9091 1.27483ZM13.9091 0C6.54545 0 0 3.18569 0 8.28409C0 12.1077 3.27273 15.2934 8.18182 15.2934C11.0078 15.2934 13.9999 13.3742 16.1403 13.3742C16.2164 13.3742 16.2908 13.377 16.3636 13.3816C19.5619 13.5979 19.6364 16.5682 23.7273 16.5682C25.6426 16.5682 27.8182 14.6564 27.8182 10.1959C27.8182 4.46052 22.0909 0 13.9091 0Z" fill="#FFE8B6"/>
<path d="M12.4044 1.32824C12.4044 1.32824 14.7273 1.27485 16.3636 2.54876C17.1818 3.18572 16.6377 4.61979 16.6377 4.61979L18 5.09842C18 5.09842 17.9493 4.32984 20.4545 3.82359C22.2963 3.45173 24.1707 5.09842 24.1707 5.09842C24.1707 5.09842 22.0909 1.91181 18 1.27485C13.9091 0.636979 12.4044 1.32824 12.4044 1.32824Z" fill="#FFE8B6"/>
<path d="M19.6364 6.37233C19.6364 7.77971 18.171 8.92107 16.3636 8.92107C14.5563 8.92107 13.0909 7.77971 13.0909 6.37233C13.0909 4.96496 14.5563 3.82359 16.3636 3.82359C18.171 3.82359 19.6364 4.96496 19.6364 6.37233Z" fill="#E6E7E8"/>
<path d="M18 6.37234C18 7.07649 17.2669 7.64717 16.3636 7.64717C15.4604 7.64717 14.7273 7.07649 14.7273 6.37234C14.7273 5.6682 15.4604 5.09843 16.3636 5.09843C17.2669 5.09843 18 5.6682 18 6.37234Z" fill="#A7A9AC"/>
</svg>
