<svg width="22" height="22" viewBox="0 0 22 22" fill="none" xmlns="http://www.w3.org/2000/svg">
<path d="M11 22C17.0751 22 22 17.0751 22 11C22 4.92487 17.0751 0 11 0C4.92487 0 0 4.92487 0 11C0 17.0751 4.92487 22 11 22Z" fill="#99AAB5"/>
<path d="M11 19.5556C15.7251 19.5556 19.5556 15.7251 19.5556 11C19.5556 6.27491 15.7251 2.44446 11 2.44446C6.2749 2.44446 2.44444 6.27491 2.44444 11C2.44444 15.7251 6.2749 19.5556 11 19.5556Z" fill="#E1E8ED"/>
<path d="M11 11.6111C10.6627 11.6111 10.3889 11.3379 10.3889 11V3.66665C10.3889 3.32932 10.6627 3.05554 11 3.05554C11.3379 3.05554 11.6111 3.32932 11.6111 3.66665V11C11.6111 11.3379 11.3379 11.6111 11 11.6111Z" fill="#67757F"/>
<path d="M11.0006 11.6111C10.7763 11.6111 10.5606 11.4877 10.4531 11.2732L8.00861 6.38428C7.85766 6.08239 7.97988 5.71511 8.28177 5.56417C8.58488 5.41261 8.95094 5.53606 9.10188 5.83734L11.5463 10.7262C11.6973 11.0281 11.5751 11.3954 11.2732 11.5463C11.1858 11.5903 11.0923 11.6111 11.0006 11.6111Z" fill="#67757F"/>
</svg>
